<svg xmlns="http://www.w3.org/2000/svg" width="222.952" height="200" viewBox="0 0 58.989 52.917">
  <path fill="#fff" stroke="#fff" stroke-width=".73052852" d="M48.926.366c-.614 0-1.112.498-1.112 1.112 0 .614.498 1.112 1.112 1.112 3.087 0 5.597 2.51 5.597 5.598v25.116c-2.214-3.142-5.87-5.2-9.997-5.2-5.443 0-10.066 3.577-11.643 8.504-.895-.816-2.085-1.315-3.39-1.315-1.302 0-2.492.5-3.387 1.314-1.577-4.926-6.2-8.502-11.643-8.502-4.128 0-7.784 2.056-9.998 5.2V8.187c0-3.087 2.51-5.598 5.598-5.598.614 0 1.112-.498 1.112-1.112 0-.614-.498-1.112-1.112-1.112-4.314 0-7.822 3.51-7.822 7.822v32.14c0 6.74 5.484 12.222 12.223 12.222 6.74 0 12.222-5.483 12.222-12.223v-.003c.002-1.547 1.26-2.806 2.81-2.806 1.548 0 2.808 1.26 2.808 2.81 0 6.74 5.483 12.222 12.223 12.222 6.74 0 12.222-5.483 12.222-12.223V8.187c0-4.312-3.51-7.82-7.822-7.82zM24.46 40.33c0 5.51-4.485 9.995-9.997 9.995s-9.997-4.485-9.997-9.998 4.485-9.998 9.997-9.998 9.996 4.483 9.998 9.994v.005zm20.066 9.995c-5.513 0-9.998-4.485-9.998-9.998s4.485-9.998 9.998-9.998 9.997 4.484 9.997 9.997-4.484 9.998-9.997 9.998z"/>
</svg>