<svg xmlns="http://www.w3.org/2000/svg" width="203.001" height="203.001" viewBox="0 0 53.711 53.711">
  <g fill="#fff" stroke="#fff" stroke-width="1.776">
    <path stroke-width="1.969" d="M460.8 51.2h-25.6V38.4c0-21.17-17.23-38.4-38.4-38.4-21.17 0-38.4 17.23-38.4 38.4v12.8H153.6V38.4c0-21.17-17.23-38.4-38.4-38.4-21.17 0-38.4 17.23-38.4 38.4v12.8H51.2C22.972 51.2 0 74.172 0 102.4v358.4C0 489.028 22.972 512 51.2 512h409.6c28.228 0 51.2-22.972 51.2-51.2V102.4c0-28.228-22.972-51.2-51.2-51.2zM384 38.4c0-7.074 5.726-12.8 12.8-12.8 7.074 0 12.8 5.726 12.8 12.8v51.2c0 7.074-5.726 12.8-12.8 12.8-7.074 0-12.8-5.726-12.8-12.8zm-281.6 0c0-7.074 5.726-12.8 12.8-12.8 7.074 0 12.8 5.726 12.8 12.8v51.2c0 7.074-5.726 12.8-12.8 12.8-7.074 0-12.8-5.726-12.8-12.8zm384 422.4c0 14.14-11.46 25.6-25.6 25.6H51.2c-14.14 0-25.6-11.46-25.6-25.6V179.2h460.8zm0-307.2H25.6v-51.2c0-14.14 11.46-25.6 25.6-25.6h25.6v12.8c0 21.17 17.23 38.4 38.4 38.4 21.17 0 38.4-17.23 38.4-38.4V76.8h204.8v12.8c0 21.17 17.23 38.4 38.4 38.4 21.17 0 38.4-17.23 38.4-38.4V76.8h25.6c14.14 0 25.6 11.46 25.6 25.6z" transform="matrix(.10296 0 0 .10296 .498 .498)"/>
    <path d="M-564.688 215.717H-878.98c-5.974 0-10.817 4.842-10.817 10.817V383.68c0 5.976 4.842 10.818 10.817 10.818h314.291c5.975 0 10.817-4.842 10.817-10.817V226.535c-.002-5.975-4.844-10.817-10.818-10.817zm-246.536 157.147h-56.94v-56.94h56.94zm0-78.573h-56.94v-56.94h56.94zm78.573 78.574h-56.94v-56.94h56.94zm0-78.573h-56.94v-56.94h56.94zm78.572 78.574h-56.94v-56.94h56.94zm0-78.573h-56.94v-56.94h56.94zm78.573 78.574h-56.94v-56.94h56.94zm0-78.573h-56.94v-56.94h56.94z" transform="matrix(.11416 0 0 .11416 109.416 -.436)"/>
  </g>
</svg>