<svg xmlns="http://www.w3.org/2000/svg" width="512" height="512" viewBox="0 0 58 58">
  <g fill="#FFF">
    <path d="M50.95 12.187l-.77-.77L40.083 1.32l-.77-.77C38.963.2 38.48 0 37.983 0H8.965C7.776 0 6.5.916 6.5 2.926V56c0 .837.842 1.653 1.838 1.91.05.013.098.032.15.042.156.03.315.048.475.048h40.074c.16 0 .32-.017.475-.048.052-.01.1-.03.15-.042.996-.257 1.838-1.073 1.838-1.91V13.978c0-.767-.092-1.333-.55-1.79zM47.935 12H39.5V3.565L47.935 12zM8.963 56c-.07 0-.135-.026-.198-.05-.156-.073-.265-.23-.265-.413V41h41v14.537c0 .184-.11.34-.265.414-.063.024-.127.05-.198.05H8.963zM8.5 39V2.926c0-.217.033-.926.463-.926h28.595c-.033.126-.058.256-.058.39V14h11.61c.134 0 .263-.025.39-.058V39h-41z"/>
    <path d="M22.042 44.744c-.333-.273-.71-.48-1.128-.615-.42-.138-.843-.206-1.27-.206h-2.9V54h1.642v-3.637h1.217c.528 0 1.012-.077 1.45-.232s.81-.373 1.12-.655c.31-.282.55-.63.725-1.046.173-.416.26-.878.26-1.39 0-.482-.103-.917-.308-1.305s-.475-.717-.808-.99zm-.622 3.33c-.1.277-.232.493-.396.648-.164.155-.344.267-.54.335-.196.068-.395.103-.595.103h-1.505v-3.992h1.23c.42 0 .756.066 1.012.198.255.132.453.296.595.492.14.196.234.4.28.615.045.214.068.403.068.567 0 .41-.05.755-.15 1.033zM31.954 45.4c-.424-.446-.957-.805-1.6-1.073s-1.388-.403-2.235-.403h-3.036V54h3.814c.127 0 .323-.016.588-.048.264-.032.556-.104.875-.22.32-.113.65-.284.992-.512s.65-.54.923-.937.5-.89.677-1.477.267-1.297.267-2.126c0-.602-.106-1.188-.315-1.757-.21-.568-.527-1.076-.95-1.523zm-1.196 6.33c-.492.71-1.294 1.066-2.406 1.066h-1.627v-7.63h.957c.784 0 1.422.104 1.914.31s.882.473 1.17.806.48.704.58 1.114c.1.41.15.825.15 1.244 0 1.35-.246 2.38-.738 3.09zM35.598 54h1.668v-4.54h4.21v-1.12h-4.21v-3.172H41.9v-1.244h-6.302M38.428 22.96c-.92 0-2.047.12-3.358.36-1.83-1.943-3.74-4.78-5.088-7.563 1.337-5.63.668-6.426.373-6.802-.314-.4-.757-1.05-1.26-1.05-.212 0-.788.097-1.017.173-.576.192-.886.636-1.134 1.215-.707 1.653.263 4.47 1.26 6.643-.852 3.393-2.283 7.454-3.787 10.75-3.79 1.736-5.803 3.44-5.985 5.068-.066.592.074 1.46 1.115 2.242.285.213.62.326.967.326.875 0 1.76-.67 2.782-2.107.746-1.048 1.547-2.477 2.383-4.25 2.677-1.172 5.99-2.23 8.827-2.823 1.58 1.517 2.995 2.285 4.21 2.285.897 0 1.665-.412 2.22-1.19.58-.812.712-1.538.39-2.16-.384-.75-1.333-1.116-2.9-1.116zm-17.892 9.674c-.468-.36-.44-.6-.43-.692.06-.556.932-1.543 3.07-2.744-1.62 2.992-2.49 3.39-2.64 3.436zm8.2-22.922c.043-.014 1.045 1.1.096 3.216-1.426-1.46-.194-3.183-.096-3.216zM26.67 25.738c1.014-2.42 1.958-5.09 2.673-7.564 1.123 2.018 2.472 3.976 3.822 5.544-2.134.5-4.406 1.208-6.496 2.02zm12.9-.48c-.308.432-.976.442-1.21.442-.533 0-.732-.317-1.547-.944.672-.086 1.306-.108 1.81-.108.89 0 1.053.13 1.176.197-.023.07-.08.205-.23.414z"/>
  </g>
</svg>
